<?xml version="1.0" standalone="yes"?>
<svg xmlns="http://www.w3.org/2000/svg" width="512" height="512">
<path style="fill:#53514f; stroke:none;" d="M0 0L0 512L512 512L512 0L0 0z"/>
<path style="fill:#0ebed9; stroke:none;" d="M80 168C78.8354 177.609 75.2158 198.236 80.0278 206.826C84.0852 214.069 96.3336 219.061 103 223.72C122.876 237.61 146.574 260.109 170 267L170 168L80 168z"/>
<path style="fill:#f2f2f2; stroke:none;" d="M170 168L170 174L347 174L347 169L235 169L170 168z"/>
<path style="fill:#f24217; stroke:none;" d="M347 265C367.846 255.256 386.731 238.924 406 226.344C414.855 220.563 428.523 215.473 435.397 207.391C440.151 201.802 437 186.02 437 179C437 176.307 437.772 171.875 435.972 169.603C433.082 165.954 421.235 168 417 168L366 168C361.788 168 350.972 166.067 347.992 169.603C344.345 173.932 347 187.51 347 193C347 214.979 340.76 243.889 347 265z"/>
<path style="fill:#f2f2f2; stroke:none;" d="M248 183.424C235.097 185.139 222.804 188.408 212 196.043C204.879 201.076 198.633 207.806 193.746 215C158.55 266.81 206.765 332.989 266 325.714C277.898 324.253 289.799 320.376 300 314.035C307.305 309.494 313.421 303.762 318.711 297C358.451 246.194 308.032 175.446 248 183.424M186 204L200 188C186.254 188 186 190.826 186 204M316 189L330 204L330 189L316 189z"/>
<path style="fill:#53514f; stroke:none;" d="M234 236C249.689 221.125 274.465 224.331 283.651 245C287.522 253.708 286.315 264.053 284 273C289.902 273 303.598 275.556 308.436 271.972C311.389 269.785 310.982 264.244 311.424 261C313.303 247.19 308.798 232.547 299.699 222.004C274.266 192.531 224.001 199.31 207.258 234C202.615 243.621 201.411 255.48 203.468 265.999C206.218 280.057 232.022 270.234 242 272.39C248.443 273.783 252.972 277.883 260 276.786C264.768 276.042 268.62 272.739 271.466 268.996C273.192 266.726 274.928 263.96 273.289 261.174C271.054 257.375 265.604 254.957 262 252.681C253.166 247.103 243.745 239.694 234 236z"/>
<path style="fill:#8a39d8; stroke:none;" d="M109 231L114 268L113 268L108 238L107 238L100 316L110 313L109 315C123.275 308.184 116 280.511 116 267C123.834 274.16 122.342 295.27 131.394 299.864C134.938 301.663 140.126 297.093 143 295.424C150.611 291.005 161.008 281.922 170 282L175 273L140 250.795L109 231z"/>
<path style="fill:#f24217; stroke:none;" d="M403 249C398.658 262.348 394.77 275.813 389.947 289C388.737 292.308 387.223 300.349 382.892 300.759C379.31 301.098 374.901 297.53 372 295.799C363.789 290.902 355.858 285.688 347 282L346 346L219 346L186 346C182.157 346 175.668 347.208 172.318 344.972C168.42 342.371 170 334.011 170 330L170 295C170 291.867 171.231 285.178 168.972 282.658C166.519 279.921 161.214 284.307 159 285.573C153.711 288.596 138.178 301.362 132.214 299.554C129.031 298.589 127.945 293.703 126.953 291C124.374 283.975 122.692 271.05 116 267C116 277.873 121.179 299.347 115.972 308.907C108.369 322.866 68.3177 327.747 79.6034 350.682C81.2537 354.036 86.9629 353 90 353C96.1342 353 119.7 350.972 122.397 357.148C126.424 366.372 123 383.937 123 394C123 397.855 121.566 405.318 125.318 407.821C129.496 410.609 138.038 409.012 142.83 408.884C155.534 408.546 168.291 409 181 409L332 409L376 409C380.259 409 388.863 410.613 392.397 407.821C395.562 405.32 394.96 396.621 394.883 393C394.607 380.018 395 366.989 395 354C404.032 353.612 412.916 353 422 353C425.652 353 431.326 354.048 434.682 352.397C438.749 350.396 437.887 337.601 435.397 334.598C428 325.679 404.995 321.417 401.773 309.985C397.967 296.477 402.933 277.016 403.001 263C403.023 258.444 404.735 253.253 403 249z"/>
<path style="fill:#53514f; stroke:none;" d="M114 272L114 275L115 275L114 272M235 296L238 297L238 298L234 297L237 300L234 302C251.808 311.384 277.701 308.425 292 294C289.435 290.822 285.865 284.055 281.871 282.85C277.661 281.581 272.691 286.434 269 287.982C258.785 292.265 242.248 287.213 235 296M240 290L241 291L240 290M115 296L115 299L116 299L115 296M115 304L116 305L115 304M110.667 312.333L111.333 312.667L110.667 312.333z"/>
<path style="fill:#f2f2f2; stroke:none;" d="M188 313L188 331L203 331C201.429 323.105 194.361 317.382 188 313M312 330L328 330L328 313C320.908 316.161 314.799 322.763 312 330z"/>
<path style="fill:#8a39d8; stroke:none;" d="M106 316L107 317L106 316M103 318L104 319L103 318M100 320L101 321L100 320z"/>
</svg>
